# xmcd
#
# Track frame offsets:
#	150
#	14084
#	25775
#	40305
#	56392
#	74186
#	87586
#	102331
#	119049
#	132938
#	150935
#
# Disc length: 2140 seconds
#
# Revision: 0
# Processed by: cddbd v1.5.1PL0 Copyright (c) Steve Scherf et al.
# Submitted via: dBpowerAMP V4.0
#
DISCID=9a085a0b
DTITLE=Jami Lampkins and Heather Grady - This Side of Traditional
DYEAR=1900
DGENRE=Bluegrass
TTITLE0=Razzle
TTITLE1=Knockin' On Your Door
TTITLE2=Green Rolling Hills of West Virginia
TTITLE3=Blue and Lonesome
TTITLE4=Dear John
TTITLE5=Mule Skinner Blues
TTITLE6=Table 22
TTITLE7=My Baby Thinks He's a Train
TTITLE8=Pardon Me
TTITLE9=Who Needs You
TTITLE10=It's Mighty Dark To Travel
EXTD=Half of the "The Lampkins Family Band"
EXTT0=
EXTT1=
EXTT2=
EXTT3=
EXTT4=
EXTT5=
EXTT6=
EXTT7=
EXTT8=
EXTT9=
EXTT10=
PLAYORDER=
